<?xml version="1.0" encoding="utf-8"?>
<svg xmlns:xlink="http://www.w3.org/1999/xlink" xmlns="http://www.w3.org/2000/svg" xml:space="preserve">
   <g id="fb" strokeWidth="1" fillRule="evenodd" fill="none">
        <circle cx="22" cy="22" r="22" fill="#E7E7E7"/>
        <path d="M26 13.7L23.9 13.7C21.5 13.7 19.9 15.2 19.9 17.6L19.9 19.4 17.8 19.4C17.6 19.4 17.4 19.6 17.4 19.8L17.4 22.4C17.4 22.6 17.6 22.7 17.8 22.7L19.9 22.7 19.9 29.4C19.9 29.6 20.1 29.7 20.3 29.7L23.1 29.7C23.3 29.7 23.4 29.6 23.4 29.4L23.4 22.7 25.9 22.7C26.1 22.7 26.3 22.6 26.3 22.4L26.3 19.8C26.3 19.7 26.2 19.6 26.2 19.5 26.1 19.5 26 19.4 25.9 19.4L23.4 19.4 23.4 17.9C23.4 17.1 23.6 16.8 24.6 16.8L26 16.8C26.2 16.8 26.4 16.6 26.4 16.4L26.4 14C26.4 13.8 26.2 13.7 26 13.7Z" fillRule="nonzero" fill="#929292"/>
  </g>

 <g id="tw" strokeWidth="1" fillRule="evenodd" fill="none">
     <circle cx="22" cy="22" r="22" fill="#E7E7E7"/>
     <path d="M31.2 17.5C30.6 17.7 29.9 17.9 29.2 18 29.9 17.6 30.5 16.9 30.7 16.2 30 16.5 29.3 16.8 28.5 17 27.8 16.3 26.9 15.9 25.9 15.9 23.9 15.9 22.3 17.4 22.3 19.2 22.3 19.4 22.3 19.7 22.4 19.9 19.4 19.8 16.8 18.5 15 16.5 14.7 17 14.5 17.6 14.5 18.2 14.5 19.3 15.2 20.3 16.1 20.9 15.5 20.9 15 20.7 14.5 20.5L14.5 20.5C14.5 22.1 15.7 23.4 17.4 23.7 17.1 23.8 16.7 23.8 16.4 23.8 16.2 23.8 16 23.8 15.7 23.8 16.2 25 17.5 26 19.1 26 17.9 26.9 16.3 27.4 14.6 27.4 14.4 27.4 14.1 27.4 13.8 27.4 15.4 28.3 17.3 28.8 19.3 28.8 25.8 28.8 29.4 23.9 29.4 19.6L29.4 19.1C30.1 18.7 30.7 18.1 31.2 17.5Z" fillRule="nonzero" fill="#929292"/>
  </g>

   <g id="reddit" strokeWidth="1" fillRule="evenodd" fill="none">
        <circle cx="22" cy="22" r="22" fill="#E7E7E7"/>
        <path d="M31.7 24.7C31.3 28.2 27.2 30.9 22.2 30.9 17.3 30.9 13.2 28.2 12.8 24.8 11.8 24.2 11.2 23.1 11.2 21.9 11.2 20.1 12.6 18.6 14.4 18.6 15 18.6 15.6 18.8 16.1 19.1 16.1 19.1 16.1 19.2 16.1 19.2 17.6 18.3 19.5 17.7 21.5 17.6L23.2 12.8 26.8 13.6C27.2 12.9 28 12.4 28.9 12.4 30.3 12.4 31.4 13.6 31.4 14.9 31.4 16.3 30.3 17.5 28.9 17.5 27.5 17.5 26.4 16.3 26.4 14.9 26.4 14.9 26.4 14.8 26.4 14.7L23.9 14.1 22.7 17.6C24.8 17.6 26.8 18.2 28.3 19.1 28.8 18.8 29.3 18.6 30 18.6 31.7 18.6 33.2 20.1 33.2 21.9 33.2 23.1 32.6 24.1 31.7 24.7ZM18.9 24.6C19.7 24.6 20.4 23.9 20.4 23.1 20.4 22.3 19.7 21.6 18.9 21.6 18.1 21.6 17.4 22.3 17.4 23.1 17.4 23.9 18.1 24.6 18.9 24.6ZM25.3 24.6C26.1 24.6 26.8 23.9 26.8 23.1 26.8 22.3 26.1 21.6 25.3 21.6 24.5 21.6 23.8 22.3 23.8 23.1 23.8 23.9 24.5 24.6 25.3 24.6ZM25 26.4C21.9 28.5 19.4 26.5 19.3 26.4 19 26.2 18.7 26.3 18.5 26.5 18.3 26.8 18.3 27.1 18.6 27.3 18.6 27.3 20 28.5 22.1 28.5 23.2 28.5 24.4 28.2 25.7 27.3 25.9 27.2 26 26.8 25.8 26.6 25.6 26.3 25.3 26.2 25 26.4Z" fillRule="nonzero" fill="#929292"/>
  </g>

  <g id="telegram" strokeWidth="1" fillRule="evenodd" fill="none">
        <circle cx="22" cy="22" r="22" fill="#E7E7E7"/>
        <path d="M12.4 22.1L16.7 23.7 18.3 28.9C18.4 29.3 18.8 29.4 19.1 29.2L21.5 27.2C21.7 27 22.1 27 22.3 27.2L26.6 30.3C26.9 30.5 27.3 30.4 27.4 30L30.5 15C30.6 14.6 30.2 14.3 29.8 14.4L12.4 21.1C12 21.3 12 21.9 12.4 22.1ZM18.1 22.8L26.3 17.7C26.5 17.6 26.6 17.8 26.5 17.9L19.7 24.3C19.4 24.5 19.3 24.8 19.2 25.1L19 26.9C19 27.1 18.6 27.1 18.6 26.9L17.7 23.7C17.6 23.4 17.7 23 18.1 22.8Z" fillRule="nonzero" fill="#929292"/>
  </g>

 <g id="medium" strokeWidth="1" fillRule="evenodd" fill="none">
        <circle cx="22" cy="22" r="22" fill="#E7E7E7"/>
        <path d="M16.3 18.7C16.3 18.5 16.2 18.3 16 18.1L14.5 16.3 14.5 16 19.3 16 23 24.1 26.2 16 30.8 16 30.8 16.3 29.5 17.5C29.4 17.6 29.3 17.8 29.3 17.9L29.3 27.2C29.3 27.3 29.4 27.5 29.5 27.6L30.8 28.8 30.8 29.1 24.3 29.1 24.3 28.8 25.6 27.5C25.8 27.4 25.8 27.4 25.8 27.2L25.8 19.7 22.1 29.1 21.6 29.1 17.2 19.7 17.2 26C17.2 26.2 17.3 26.5 17.5 26.7L19.2 28.8 19.2 29.1 14.3 29.1 14.3 28.8 16 26.7C16.2 26.5 16.3 26.2 16.3 26L16.3 18.7Z" fillRule="nonzero" fill="#929292"/>
  </g>
</svg>
